<?xml version="1.0" encoding="UTF-8" standalone="no"?>
<svg
   xmlns:dc="http://purl.org/dc/elements/1.1/"
   xmlns:cc="http://creativecommons.org/ns#"
   xmlns:rdf="http://www.w3.org/1999/02/22-rdf-syntax-ns#"
   xmlns:svg="http://www.w3.org/2000/svg"
   xmlns="http://www.w3.org/2000/svg"
   xmlns:sodipodi="http://sodipodi.sourceforge.net/DTD/sodipodi-0.dtd"
   xmlns:inkscape="http://www.inkscape.org/namespaces/inkscape"
   aria-label="Google Scholar"
   role="img"
   viewBox="0 0 512 512"
   version="1.1"
   id="svg6"
   sodipodi:docname="google-scholar-svgrepo-com.svg"
   inkscape:version="0.92.5 (2060ec1f9f, 2020-04-08)">
  <metadata
     id="metadata12">
    <rdf:RDF>
      <cc:Work
         rdf:about="">
        <dc:format>image/svg+xml</dc:format>
        <dc:type
           rdf:resource="http://purl.org/dc/dcmitype/StillImage" />
      </cc:Work>
    </rdf:RDF>
  </metadata>
  <defs
     id="defs10" />
  <sodipodi:namedview
     pagecolor="#ffffff"
     bordercolor="#666666"
     borderopacity="1"
     objecttolerance="10"
     gridtolerance="10"
     guidetolerance="10"
     inkscape:pageopacity="0"
     inkscape:pageshadow="2"
     inkscape:window-width="2248"
     inkscape:window-height="1335"
     id="namedview8"
     showgrid="false"
     inkscape:zoom="1.4142136"
     inkscape:cx="481.7538"
     inkscape:cy="255.69951"
     inkscape:window-x="890"
     inkscape:window-y="229"
     inkscape:window-maximized="0"
     inkscape:current-layer="svg6" />
  <rect
     width="512"
     height="512"
     rx="15%"
     id="rect2"
     style="fill:#000000;fill-opacity:1"
     fill="#4285f4" />
  <path
     d="M213 111l-107 94h69c5 45 41 64 78 67-7 18-4 27 7 39-43 1-103 26-103 67 4 45 63 54 92 54 38 1 81-19 90-54 4-35-10-54-31-71-23-18-28-28-21-40 15-17 35-27 39-51 2-17-2-28-6-43l45-38-1 16c-3 2-5 6-5 9v103c2 13 22 11 23 0V160c0-3-2-7-5-8v-25l16-16zm58 141c-61 10-87-87-38-99 56-11 83 86 38 99zm-5 73c60 13 61 63 10 78-44 9-82-4-81-30 0-25 35-48 71-48z"
     id="path4"
     fill="#fff" />
</svg>
